<?xml version="1.0" standalone="no"?>
<!DOCTYPE svg PUBLIC "-//W3C//DTD SVG 20010904//EN"
 "http://www.w3.org/TR/2001/REC-SVG-20010904/DTD/svg10.dtd">
<svg version="1.0" xmlns="http://www.w3.org/2000/svg"
 width="291.000000pt" height="234.000000pt" viewBox="0 0 291.000000 234.000000"
 preserveAspectRatio="xMidYMid meet">

<g transform="translate(0.000000,234.000000) scale(0.100000,-0.100000)"
fill="#000000" stroke="none">
<path d="M1245 2325 c-248 -46 -441 -182 -577 -407 -23 -37 -38 -54 -38 -42 0
65 -46 141 -102 170 -29 15 -30 15 -23 -5 8 -25 7 -25 -38 -6 -20 8 -52 15
-71 15 -34 0 -35 -1 -24 -25 14 -30 3 -44 -20 -27 -40 29 -78 52 -84 52 -5 0
-8 -11 -8 -25 0 -14 -5 -25 -11 -25 -18 0 -78 40 -89 58 -7 14 -9 11 -10 -15
0 -22 10 -43 30 -66 34 -39 36 -47 15 -47 -31 0 4 -38 56 -63 45 -21 50 -26
33 -35 -15 -8 -10 -12 36 -26 29 -9 67 -16 83 -16 29 0 30 -1 13 -19 -17 -19
-17 -20 20 -30 41 -11 116 0 143 22 12 10 14 9 7 -8 -33 -86 -66 -274 -66
-380 0 -146 48 -362 107 -478 33 -65 94 -160 99 -154 3 2 27 68 53 145 l49
139 -16 69 c-10 47 -16 121 -16 234 0 139 3 179 22 255 52 206 173 376 336
471 47 28 50 33 85 129 l36 100 159 0 159 0 40 -103 c37 -96 42 -104 81 -124
171 -86 300 -276 352 -514 19 -93 23 -323 5 -425 -11 -65 -10 -68 29 -175 22
-60 47 -124 56 -143 14 -32 16 -33 29 -15 53 76 121 247 146 369 15 69 18 326
6 399 l-9 50 24 -17 c12 -10 33 -25 46 -34 29 -20 117 -30 127 -14 3 7 1 19
-6 27 -10 13 -5 14 42 8 58 -6 124 10 100 25 -16 10 -6 16 39 25 40 7 107 55
78 56 -24 0 -23 3 17 43 19 19 35 45 35 56 0 20 -1 21 -24 6 -28 -18 -82 -35
-90 -28 -2 3 -1 16 4 29 12 32 -3 31 -64 -1 -26 -14 -49 -25 -52 -25 -9 0 -4
39 6 45 6 3 10 11 10 17 0 7 -24 9 -74 5 -62 -4 -74 -3 -69 9 11 28 -42 10
-85 -30 -29 -25 -52 -69 -63 -113 -4 -18 -6 -33 -4 -33 1 0 28 12 59 26 60 27
176 45 176 27 0 -6 -19 -14 -43 -17 -46 -7 -142 -48 -169 -73 -15 -13 -18 -13
-22 -2 -2 8 -14 48 -26 89 -23 78 -80 197 -127 266 -133 194 -327 318 -553
354 -88 13 -289 11 -375 -5z m-713 -425 c72 -36 91 -54 83 -79 -6 -21 -7 -21
-43 10 -20 18 -64 45 -99 61 -35 17 -63 32 -63 35 0 12 81 -6 122 -27z m98
-130 c0 -5 -2 -10 -4 -10 -3 0 -8 5 -11 10 -3 6 -1 10 4 10 6 0 11 -4 11 -10z"/>
<path d="M1295 2260 c-3 -5 -19 -47 -35 -92 -16 -46 -51 -146 -78 -223 -91
-255 -272 -766 -363 -1025 -49 -140 -117 -331 -151 -425 -33 -93 -82 -232
-109 -307 l-48 -138 132 0 132 0 207 628 c205 624 332 1016 405 1249 21 68 41
123 45 123 4 0 17 -33 28 -72 34 -118 105 -332 221 -664 59 -170 111 -322 114
-337 l7 -27 -253 -1 -254 -1 130 -23 c218 -38 370 -93 427 -152 26 -27 56
-105 214 -555 l59 -168 143 0 c133 0 144 1 137 18 -13 33 -137 357 -160 417
-12 33 -65 173 -118 310 -91 238 -312 828 -383 1020 -19 50 -64 171 -102 270
l-69 180 -136 3 c-84 1 -138 -1 -142 -8z"/>
<path d="M1429 1343 c-33 -35 -108 -83 -133 -84 -13 0 -4 -7 23 -17 24 -9 65
-36 90 -58 l46 -42 46 42 c26 23 65 48 88 56 l42 14 -50 18 c-27 10 -67 37
-89 58 l-39 39 -24 -26z"/>
<path d="M938 468 c-36 -112 -64 -206 -61 -210 2 -5 96 -8 209 -8 l204 0 0
110 0 109 -67 40 c-38 21 -101 67 -140 100 -40 34 -74 61 -76 61 -1 0 -32 -91
-69 -202z"/>
<path d="M1820 629 c-55 -49 -140 -109 -198 -138 l-43 -22 3 -107 3 -107 218
-3 c134 -1 217 1 217 7 0 20 -73 216 -83 222 -5 4 -11 20 -12 36 -3 34 -45
153 -54 153 -3 -1 -26 -19 -51 -41z"/>
<path d="M500 369 l0 -120 27 3 c25 3 31 12 65 108 21 58 36 111 33 118 -3 8
-26 12 -65 12 l-60 0 0 -121z"/>
<path d="M2280 477 c0 -16 74 -214 84 -224 4 -4 5 47 4 112 l-3 120 -42 3
c-31 2 -43 -1 -43 -11z"/>
</g>
</svg>
